{
  "asset": {
    "version": "2.0",
    "generator": "TurboSquid Stem Converter v1.0.0"
  },
  "accessors": [
    {
      "bufferView": 0,
      "byteOffset": 0,
      "componentType": 5126,
      "count": 3470,
      "type": "VEC3",
      "max": [
        2.0955567359924316,
        5.1434197425842285,
        3.802091598510742
      ],
      "min": [
        -2.1045401096343994,
        -5.148074150085449,
        -3.802091598510742
      ]
    },
    {
      "bufferView": 1,
      "byteOffset": 0,
      "componentType": 5126,
      "count": 3470,
      "type": "VEC3",
      "max": [
        0.9995578527450562,
        0.9999454021453857,
        0.9985487461090088
      ],
      "min": [
        -0.9994769096374512,
        -0.9999557137489319,
        -0.9980893731117249
      ]
    },
    {
      "bufferView": 2,
      "byteOffset": 0,
      "componentType": 5126,
      "count": 3470,
      "type": "VEC2",
      "max": [
        0.9980000257492065,
        0.9980000257492065
      ],
      "min": [
        0.582597017288208,
        0.03905302286148071
      ]
    },
    {
      "bufferView": 3,
      "byteOffset": 0,
      "componentType": 5123,
      "count": 18144,
      "type": "SCALAR",
      "max": [
        3469.0
      ],
      "min": [
        0.0
      ]
    },
    {
      "bufferView": 4,
      "byteOffset": 0,
      "componentType": 5126,
      "count": 612,
      "type": "VEC3",
      "max": [
        0.5663998126983643,
        0.6282206177711487,
        0.6335363388061523
      ],
      "min": [
        -0.5971653461456299,
        -0.6267451047897339,
        -0.6335363984107971
      ]
    },
    {
      "bufferView": 5,
      "byteOffset": 0,
      "componentType": 5126,
      "count": 612,
      "type": "VEC3",
      "max": [
        0.9966175556182861,
        0.9986921548843384,
        0.9991859793663025
      ],
      "min": [
        -0.9960135817527771,
        -0.9991613626480103,
        -0.9957777261734009
      ]
    },
    {
      "bufferView": 6,
      "byteOffset": 0,
      "componentType": 5126,
      "count": 612,
      "type": "VEC2",
      "max": [
        0.972341001033783,
        0.1512029767036438
      ],
      "min": [
        0.9578390121459961,
        0.03200697898864746
      ]
    },
    {
      "bufferView": 7,
      "byteOffset": 0,
      "componentType": 5123,
      "count": 3216,
      "type": "SCALAR",
      "max": [
        611.0
      ],
      "min": [
        0.0
      ]
    },
    {
      "bufferView": 8,
      "byteOffset": 0,
      "componentType": 5126,
      "count": 33996,
      "type": "VEC3",
      "max": [
        10.957191467285156,
        12.784123420715332,
        5.371768474578857
      ],
      "min": [
        -10.69487476348877,
        -12.157696723937988,
        -5.371767997741699
      ]
    },
    {
      "bufferView": 9,
      "byteOffset": 0,
      "componentType": 5126,
      "count": 33996,
      "type": "VEC3",
      "max": [
        0.9999565482139587,
        0.9999914169311523,
        0.9999890327453613
      ],
      "min": [
        -0.9999099969863892,
        -0.9999972581863403,
        -0.9999678134918213
      ]
    },
    {
      "bufferView": 10,
      "byteOffset": 0,
      "componentType": 5126,
      "count": 33996,
      "type": "VEC2",
      "max": [
        0.9516980051994324,
        0.9963859915733337
      ],
      "min": [
        0.0020000000949949026,
        0.007992982864379883
      ]
    },
    {
      "bufferView": 11,
      "byteOffset": 0,
      "componentType": 5123,
      "count": 155448,
      "type": "SCALAR",
      "max": [
        33995.0
      ],
      "min": [
        0.0
      ]
    },
    {
      "bufferView": 12,
      "byteOffset": 0,
      "componentType": 5126,
      "count": 612,
      "type": "VEC3",
      "max": [
        0.6133498549461365,
        0.7011207938194275,
        0.5433632731437683
      ],
      "min": [
        -0.6454896926879883,
        -0.6763061285018921,
        -0.5433617830276489
      ]
    },
    {
      "bufferView": 13,
      "byteOffset": 0,
      "componentType": 5126,
      "count": 612,
      "type": "VEC3",
      "max": [
        0.9989829063415527,
        0.9988967180252075,
        0.9996957182884216
      ],
      "min": [
        -0.999196469783783,
        -0.9988915324211121,
        -0.9990538954734802
      ]
    },
    {
      "bufferView": 14,
      "byteOffset": 0,
      "componentType": 5126,
      "count": 612,
      "type": "VEC2",
      "max": [
        0.972341001033783,
        0.1512029767036438
      ],
      "min": [
        0.9578390121459961,
        0.03200697898864746
      ]
    },
    {
      "bufferView": 15,
      "byteOffset": 0,
      "componentType": 5123,
      "count": 3216,
      "type": "SCALAR",
      "max": [
        611.0
      ],
      "min": [
        0.0
      ]
    },
    {
      "bufferView": 16,
      "byteOffset": 0,
      "componentType": 5126,
      "count": 3470,
      "type": "VEC3",
      "max": [
        3.784674644470215,
        5.166933536529541,
        2.7944719791412354
      ],
      "min": [
        -3.759082317352295,
        -5.393532752990723,
        -2.7944719791412354
      ]
    },
    {
      "bufferView": 17,
      "byteOffset": 0,
      "componentType": 5126,
      "count": 3470,
      "type": "VEC3",
      "max": [
        0.9999925494194031,
        0.9970991015434265,
        0.999715268611908
      ],
      "min": [
        -0.9994704723358154,
        -0.9963140487670898,
        -0.9998905658721924
      ]
    },
    {
      "bufferView": 18,
      "byteOffset": 0,
      "componentType": 5126,
      "count": 3470,
      "type": "VEC2",
      "max": [
        0.9980000257492065,
        0.9980000257492065
      ],
      "min": [
        0.582597017288208,
        0.03905302286148071
      ]
    },
    {
      "bufferView": 19,
      "byteOffset": 0,
      "componentType": 5123,
      "count": 18144,
      "type": "SCALAR",
      "max": [
        3469.0
      ],
      "min": [
        0.0
      ]
    },
    {
      "bufferView": 20,
      "byteOffset": 0,
      "componentType": 5126,
      "count": 33924,
      "type": "VEC3",
      "max": [
        6.039590835571289,
        14.144956588745117,
        6.108338356018066
      ],
      "min": [
        -6.242914199829102,
        -14.089032173156738,
        -6.108336925506592
      ]
    },
    {
      "bufferView": 21,
      "byteOffset": 0,
      "componentType": 5126,
      "count": 33924,
      "type": "VEC3",
      "max": [
        0.9999236464500427,
        0.9997224807739258,
        0.9999966025352478
      ],
      "min": [
        -0.9998536705970764,
        -0.9999412894248962,
        -0.9999991655349731
      ]
    },
    {
      "bufferView": 22,
      "byteOffset": 0,
      "componentType": 5126,
      "count": 33924,
      "type": "VEC2",
      "max": [
        0.9516980051994324,
        0.9963859915733337
      ],
      "min": [
        0.0020000000949949026,
        0.007992982864379883
      ]
    },
    {
      "bufferView": 23,
      "byteOffset": 0,
      "componentType": 5123,
      "count": 155448,
      "type": "SCALAR",
      "max": [
        33923.0
      ],
      "min": [
        0.0
      ]
    }
  ],
  "buffers": [
    {
      "byteLength": 3141920,
      "uri": "Womens_Sneakers_7.bin"
    }
  ],
  "bufferViews": [
    {
      "buffer": 0,
      "byteOffset": 0,
      "byteLength": 41640,
      "target": 34962
    },
    {
      "buffer": 0,
      "byteOffset": 41640,
      "byteLength": 41640,
      "target": 34962
    },
    {
      "buffer": 0,
      "byteOffset": 83280,
      "byteLength": 27760,
      "target": 34962
    },
    {
      "buffer": 0,
      "byteOffset": 111040,
      "byteLength": 36288,
      "target": 34963
    },
    {
      "buffer": 0,
      "byteOffset": 147328,
      "byteLength": 7344,
      "target": 34962
    },
    {
      "buffer": 0,
      "byteOffset": 154672,
      "byteLength": 7344,
      "target": 34962
    },
    {
      "buffer": 0,
      "byteOffset": 162016,
      "byteLength": 4896,
      "target": 34962
    },
    {
      "buffer": 0,
      "byteOffset": 166912,
      "byteLength": 6432,
      "target": 34963
    },
    {
      "buffer": 0,
      "byteOffset": 173344,
      "byteLength": 407952,
      "target": 34962
    },
    {
      "buffer": 0,
      "byteOffset": 581296,
      "byteLength": 407952,
      "target": 34962
    },
    {
      "buffer": 0,
      "byteOffset": 989248,
      "byteLength": 271968,
      "target": 34962
    },
    {
      "buffer": 0,
      "byteOffset": 1261216,
      "byteLength": 310896,
      "target": 34963
    },
    {
      "buffer": 0,
      "byteOffset": 1572112,
      "byteLength": 7344,
      "target": 34962
    },
    {
      "buffer": 0,
      "byteOffset": 1579456,
      "byteLength": 7344,
      "target": 34962
    },
    {
      "buffer": 0,
      "byteOffset": 1586800,
      "byteLength": 4896,
      "target": 34962
    },
    {
      "buffer": 0,
      "byteOffset": 1591696,
      "byteLength": 6432,
      "target": 34963
    },
    {
      "buffer": 0,
      "byteOffset": 1598128,
      "byteLength": 41640,
      "target": 34962
    },
    {
      "buffer": 0,
      "byteOffset": 1639768,
      "byteLength": 41640,
      "target": 34962
    },
    {
      "buffer": 0,
      "byteOffset": 1681408,
      "byteLength": 27760,
      "target": 34962
    },
    {
      "buffer": 0,
      "byteOffset": 1709168,
      "byteLength": 36288,
      "target": 34963
    },
    {
      "buffer": 0,
      "byteOffset": 1745456,
      "byteLength": 407088,
      "target": 34962
    },
    {
      "buffer": 0,
      "byteOffset": 2152544,
      "byteLength": 407088,
      "target": 34962
    },
    {
      "buffer": 0,
      "byteOffset": 2559632,
      "byteLength": 271392,
      "target": 34962
    },
    {
      "buffer": 0,
      "byteOffset": 2831024,
      "byteLength": 310896,
      "target": 34963
    }
  ],
  "materials": [
    {
      "name": "Womens_Sneakers_7_01",
      "pbrMetallicRoughness": {
        "baseColorTexture": {
          "index": 0
        },
        "metallicRoughnessTexture": {
          "index": 1
        }
      },
      "alphaMode": "OPAQUE",
      "occlusionTexture": {
        "index": 1
      },
      "normalTexture": {
        "index": 2
      }
    }
  ],
  "meshes": [
    {
      "name": "Womens_Sneakers_7_Part_001",
      "primitives": [
        {
          "mode": 4,
          "material": 0,
          "indices": 3,
          "attributes": {
            "POSITION": 0,
            "NORMAL": 1,
            "TEXCOORD_0": 2
          }
        }
      ]
    },
    {
      "name": "Womens_Sneakers_7_Part_003",
      "primitives": [
        {
          "mode": 4,
          "material": 0,
          "indices": 7,
          "attributes": {
            "POSITION": 4,
            "NORMAL": 5,
            "TEXCOORD_0": 6
          }
        }
      ]
    },
    {
      "name": "Womens_Sneakers_7_Part_002",
      "primitives": [
        {
          "mode": 4,
          "material": 0,
          "indices": 11,
          "attributes": {
            "POSITION": 8,
            "NORMAL": 9,
            "TEXCOORD_0": 10
          }
        }
      ]
    },
    {
      "name": "Womens_Sneakers_7_Part_006",
      "primitives": [
        {
          "mode": 4,
          "material": 0,
          "indices": 15,
          "attributes": {
            "POSITION": 12,
            "NORMAL": 13,
            "TEXCOORD_0": 14
          }
        }
      ]
    },
    {
      "name": "Womens_Sneakers_7_Part_004",
      "primitives": [
        {
          "mode": 4,
          "material": 0,
          "indices": 19,
          "attributes": {
            "POSITION": 16,
            "NORMAL": 17,
            "TEXCOORD_0": 18
          }
        }
      ]
    },
    {
      "name": "Womens_Sneakers_7_Part_005",
      "primitives": [
        {
          "mode": 4,
          "material": 0,
          "indices": 23,
          "attributes": {
            "POSITION": 20,
            "NORMAL": 21,
            "TEXCOORD_0": 22
          }
        }
      ]
    }
  ],
  "nodes": [
    {
      "children": [
        1
      ]
    },
    {
      "name": "Womens_Sneakers_7_$_PreRotation",
      "matrix": [
        1.0,
        0.0,
        0.0,
        0.0,
        0.0,
        -4.371138828673793e-08,
        -1.0,
        0.0,
        0.0,
        1.0,
        -4.371138828673793e-08,
        0.0,
        0.0,
        0.0,
        0.0,
        1.0
      ],
      "children": [
        2
      ]
    },
    {
      "name": "Womens_Sneakers_7_$_GeometricTranslation",
      "matrix": [
        1.0,
        0.0,
        0.0,
        0.0,
        0.0,
        1.0,
        0.0,
        0.0,
        0.0,
        0.0,
        1.0,
        0.0,
        0.0,
        -4.76837158203125e-07,
        6.108338356018066,
        1.0
      ],
      "children": [
        3
      ]
    },
    {
      "name": "Womens_Sneakers_7",
      "children": [
        4
      ]
    },
    {
      "name": "Womens_Sneakers_7_$_GeometricTranslationInverse",
      "matrix": [
        1.0,
        0.0,
        0.0,
        0.0,
        0.0,
        1.0,
        0.0,
        0.0,
        0.0,
        0.0,
        1.0,
        0.0,
        -0.0,
        4.76837158203125e-07,
        -6.108338356018066,
        1.0
      ],
      "children": [
        5,
        18
      ]
    },
    {
      "name": "Womens_Sneakers_7_Left_$_Translation",
      "matrix": [
        1.0,
        0.0,
        0.0,
        0.0,
        0.0,
        1.0,
        0.0,
        0.0,
        0.0,
        0.0,
        1.0,
        0.0,
        6.2384867668151855,
        -0.11794185638427734,
        9.5367431640625e-07,
        1.0
      ],
      "children": [
        6
      ]
    },
    {
      "name": "Womens_Sneakers_7_Left_$_GeometricTranslation",
      "matrix": [
        1.0,
        0.0,
        0.0,
        0.0,
        0.0,
        1.0,
        0.0,
        0.0,
        0.0,
        0.0,
        1.0,
        0.0,
        0.0,
        0.0,
        5.371768951416016,
        1.0
      ],
      "children": [
        7
      ]
    },
    {
      "name": "Womens_Sneakers_7_Left",
      "children": [
        8
      ]
    },
    {
      "name": "Womens_Sneakers_7_Left_$_GeometricTranslationInverse",
      "matrix": [
        1.0,
        0.0,
        0.0,
        0.0,
        0.0,
        1.0,
        0.0,
        0.0,
        0.0,
        0.0,
        1.0,
        0.0,
        -0.0,
        -0.0,
        -5.371768951416016,
        1.0
      ],
      "children": [
        9,
        12,
        15
      ]
    },
    {
      "name": "Womens_Sneakers_7_Part_001_$_Translation",
      "matrix": [
        1.0,
        0.0,
        0.0,
        0.0,
        0.0,
        1.0,
        0.0,
        0.0,
        0.0,
        0.0,
        1.0,
        0.0,
        5.520885944366455,
        0.2681248188018799,
        1.3483161926269531,
        1.0
      ],
      "children": [
        10
      ]
    },
    {
      "name": "Womens_Sneakers_7_Part_001_$_GeometricTranslation",
      "matrix": [
        1.0,
        0.0,
        0.0,
        0.0,
        0.0,
        1.0,
        0.0,
        0.0,
        0.0,
        0.0,
        1.0,
        0.0,
        0.0,
        0.0,
        3.802091598510742,
        1.0
      ],
      "children": [
        11
      ]
    },
    {
      "name": "Womens_Sneakers_7_Part_001",
      "mesh": 0
    },
    {
      "name": "Womens_Sneakers_7_Part_003_$_Translation",
      "matrix": [
        1.0,
        0.0,
        0.0,
        0.0,
        0.0,
        1.0,
        0.0,
        0.0,
        0.0,
        0.0,
        1.0,
        0.0,
        5.229569911956787,
        4.3613128662109375,
        4.772237777709961,
        1.0
      ],
      "children": [
        13
      ]
    },
    {
      "name": "Womens_Sneakers_7_Part_003_$_GeometricTranslation",
      "matrix": [
        1.0,
        0.0,
        0.0,
        0.0,
        0.0,
        1.0,
        0.0,
        0.0,
        0.0,
        0.0,
        1.0,
        0.0,
        0.0,
        0.0,
        0.6335363388061523,
        1.0
      ],
      "children": [
        14
      ]
    },
    {
      "name": "Womens_Sneakers_7_Part_003",
      "mesh": 1
    },
    {
      "name": "Womens_Sneakers_7_Part_002_$_Translation",
      "matrix": [
        1.0,
        0.0,
        0.0,
        0.0,
        0.0,
        1.0,
        0.0,
        0.0,
        0.0,
        0.0,
        1.0,
        0.0,
        -0.13115882873535156,
        -0.3132131099700928,
        0.0,
        1.0
      ],
      "children": [
        16
      ]
    },
    {
      "name": "Womens_Sneakers_7_Part_002_$_GeometricTranslation",
      "matrix": [
        1.0,
        0.0,
        0.0,
        0.0,
        0.0,
        1.0,
        0.0,
        0.0,
        0.0,
        0.0,
        1.0,
        0.0,
        0.0,
        0.0,
        5.371767997741699,
        1.0
      ],
      "children": [
        17
      ]
    },
    {
      "name": "Womens_Sneakers_7_Part_002",
      "mesh": 2
    },
    {
      "name": "Womens_Sneakers_7_Right_$_Translation",
      "matrix": [
        1.0,
        0.0,
        0.0,
        0.0,
        0.0,
        1.0,
        0.0,
        0.0,
        0.0,
        0.0,
        1.0,
        0.0,
        -10.923267364501953,
        -4.76837158203125e-07,
        0.0,
        1.0
      ],
      "children": [
        19
      ]
    },
    {
      "name": "Womens_Sneakers_7_Right_$_GeometricTranslation",
      "matrix": [
        1.0,
        0.0,
        0.0,
        0.0,
        0.0,
        1.0,
        0.0,
        0.0,
        0.0,
        0.0,
        1.0,
        0.0,
        0.0,
        0.0,
        6.108338356018066,
        1.0
      ],
      "children": [
        20
      ]
    },
    {
      "name": "Womens_Sneakers_7_Right",
      "children": [
        21
      ]
    },
    {
      "name": "Womens_Sneakers_7_Right_$_GeometricTranslationInverse",
      "matrix": [
        1.0,
        0.0,
        0.0,
        0.0,
        0.0,
        1.0,
        0.0,
        0.0,
        0.0,
        0.0,
        1.0,
        0.0,
        -0.0,
        -0.0,
        -6.108338356018066,
        1.0
      ],
      "children": [
        22,
        25,
        28
      ]
    },
    {
      "name": "Womens_Sneakers_7_Part_006_$_Translation",
      "matrix": [
        1.0,
        0.0,
        0.0,
        0.0,
        0.0,
        1.0,
        0.0,
        0.0,
        0.0,
        0.0,
        1.0,
        0.0,
        0.8032169342041016,
        1.1678369045257568,
        10.413103103637695,
        1.0
      ],
      "children": [
        23
      ]
    },
    {
      "name": "Womens_Sneakers_7_Part_006_$_GeometricTranslation",
      "matrix": [
        1.0,
        0.0,
        0.0,
        0.0,
        0.0,
        1.0,
        0.0,
        0.0,
        0.0,
        0.0,
        1.0,
        0.0,
        -4.7502187072723245e-08,
        -4.7502187072723245e-08,
        0.5433616638183594,
        1.0
      ],
      "children": [
        24
      ]
    },
    {
      "name": "Womens_Sneakers_7_Part_006",
      "mesh": 3
    },
    {
      "name": "Womens_Sneakers_7_Part_004_$_Translation",
      "matrix": [
        1.0,
        0.0,
        0.0,
        0.0,
        0.0,
        1.0,
        0.0,
        0.0,
        0.0,
        0.0,
        1.0,
        0.0,
        0.7579784393310547,
        -1.7481982707977295,
        5.812145233154297,
        1.0
      ],
      "children": [
        26
      ]
    },
    {
      "name": "Womens_Sneakers_7_Part_004_$_GeometricTranslation",
      "matrix": [
        1.0,
        0.0,
        0.0,
        0.0,
        0.0,
        1.0,
        0.0,
        0.0,
        0.0,
        0.0,
        1.0,
        0.0,
        0.0,
        -4.886011311100447e-07,
        2.7944726943969727,
        1.0
      ],
      "children": [
        27
      ]
    },
    {
      "name": "Womens_Sneakers_7_Part_004",
      "mesh": 4
    },
    {
      "name": "Womens_Sneakers_7_Part_005_$_Translation",
      "matrix": [
        1.0,
        0.0,
        0.0,
        0.0,
        0.0,
        1.0,
        0.0,
        0.0,
        0.0,
        0.0,
        1.0,
        0.0,
        0.10166168212890625,
        -0.02796095423400402,
        -9.5367431640625e-07,
        1.0
      ],
      "children": [
        29
      ]
    },
    {
      "name": "Womens_Sneakers_7_Part_005_$_GeometricTranslation",
      "matrix": [
        1.0,
        0.0,
        0.0,
        0.0,
        0.0,
        1.0,
        0.0,
        0.0,
        0.0,
        0.0,
        1.0,
        0.0,
        0.0,
        -1.0680161039999803e-06,
        6.108339309692383,
        1.0
      ],
      "children": [
        30
      ]
    },
    {
      "name": "Womens_Sneakers_7_Part_005",
      "mesh": 5
    }
  ],
  "scenes": [
    {
      "nodes": [
        0
      ]
    }
  ],
  "scene": 0,
  "samplers": [
    {
      "magFilter": 9729,
      "minFilter": 9987,
      "wrapS": 10497,
      "wrapT": 10497
    }
  ],
  "images": [
    {
      "uri": "textures/baseColor.jpg"
    },
    {
      "uri": "textures/occlusionRoughnessMetallic.jpg"
    },
    {
      "uri": "textures/normal.png"
    }
  ],
  "textures": [
    {
      "sampler": 0,
      "source": 0
    },
    {
      "sampler": 0,
      "source": 1
    },
    {
      "sampler": 0,
      "source": 2
    }
  ]
}